<?xml version="1.0" standalone="no"?>
<!DOCTYPE svg PUBLIC "-//W3C//DTD SVG 20010904//EN"
 "http://www.w3.org/TR/2001/REC-SVG-20010904/DTD/svg10.dtd">
<svg version="1.0" xmlns="http://www.w3.org/2000/svg"
 width="700.000000pt" height="700.000000pt" viewBox="0 0 700.000000 700.000000"
 preserveAspectRatio="xMidYMid meet">
<metadata>
Created by potrace 1.11, written by Peter Selinger 2001-2013
</metadata>
<g transform="translate(0.000000,700.000000) scale(0.100000,-0.100000)"
fill="#000000" stroke="none">
<path d="M4888 6995 c-2 -1 -32 -5 -68 -8 -230 -22 -554 -119 -690 -208 -14
-9 -28 -16 -32 -15 -11 2 -190 -116 -268 -177 -261 -207 -451 -453 -594 -770
-43 -96 -90 -245 -122 -392 -21 -95 -32 -229 -39 -457 -2 -92 -7 -178 -9 -190
-3 -13 -8 -45 -11 -73 -39 -329 -249 -621 -539 -749 -66 -29 -200 -73 -249
-81 -17 -3 -57 -10 -87 -15 -286 -47 -500 -18 -762 103 -333 153 -563 418
-662 758 -79 273 -47 611 82 876 76 156 230 336 372 432 137 93 345 186 459
206 19 3 37 8 41 10 28 17 267 26 399 15 l54 -5 229 274 c126 150 226 277 221
281 -22 21 -278 92 -408 114 -167 28 -403 26 -595 -5 -128 -20 -332 -81 -437
-129 -24 -11 -64 -30 -90 -42 -109 -50 -305 -180 -407 -269 -83 -72 -195 -190
-256 -269 -19 -25 -37 -47 -40 -50 -3 -3 -29 -42 -58 -87 -162 -255 -253 -511
-289 -810 -12 -103 -8 -390 8 -463 4 -19 9 -55 12 -80 11 -92 72 -301 125
-420 48 -110 67 -149 124 -244 33 -55 63 -103 66 -106 4 -3 33 -40 64 -82 104
-139 257 -280 463 -426 45 -31 256 -140 315 -161 19 -8 49 -20 67 -27 42 -19
285 -80 348 -88 28 -4 70 -9 95 -13 63 -8 341 -8 420 0 74 8 159 22 200 32 3
0 23 4 45 8 73 14 219 59 320 100 172 69 329 159 485 281 71 55 270 251 270
267 0 21 29 7 51 -26 32 -47 219 -229 294 -286 128 -98 298 -197 425 -247 41
-16 84 -33 95 -37 30 -12 31 -12 149 -45 61 -16 126 -32 145 -35 119 -21 172
-26 311 -30 261 -9 294 -12 420 -40 140 -31 318 -114 432 -202 74 -57 181
-162 223 -218 17 -22 32 -42 35 -45 15 -14 74 -115 109 -186 59 -121 91 -229
117 -398 8 -54 8 -229 0 -298 -44 -386 -289 -740 -635 -921 -130 -68 -253
-106 -426 -132 -47 -7 -246 -8 -266 -1 -8 3 -37 7 -65 10 -78 9 -220 52 -314
97 -351 167 -610 500 -675 869 -21 114 -25 279 -11 380 l6 45 -82 65 c-44 36
-86 70 -92 75 -6 6 -31 26 -56 45 -25 19 -47 37 -50 40 -19 20 -301 242 -304
239 -8 -9 -65 -198 -75 -249 -6 -30 -13 -66 -15 -79 -16 -72 -31 -258 -30
-351 1 -89 13 -251 19 -260 3 -4 7 -27 10 -51 5 -44 36 -174 57 -239 172 -536
552 -954 1078 -1182 57 -25 239 -86 277 -93 15 -2 39 -7 53 -11 191 -45 519
-52 720 -15 215 39 384 96 567 192 95 50 237 142 298 194 154 130 273 255 360
380 27 39 52 72 55 75 11 10 63 108 114 215 62 128 113 269 131 365 2 8 8 34
14 57 7 24 14 66 17 95 3 29 10 73 14 98 11 62 5 398 -10 495 -35 242 -109
472 -213 665 -37 70 -154 259 -167 270 -3 3 -19 23 -36 45 -34 46 -36 48 -134
151 -42 44 -104 104 -139 134 l-63 55 49 40 c59 48 255 243 307 305 21 25 71
95 111 155 168 252 260 494 299 787 18 134 14 451 -8 567 -73 390 -246 732
-512 1013 -61 65 -190 181 -229 208 -13 8 -56 38 -98 67 -62 43 -259 156 -277
158 -3 1 -23 9 -45 19 -54 24 -254 94 -285 100 -14 2 -54 11 -90 19 -36 8 -92
18 -125 22 -32 4 -68 9 -80 11 -21 5 -322 13 -327 9z m233 -760 c464 -33 900
-403 1020 -865 31 -120 38 -189 34 -330 -4 -154 -8 -182 -42 -300 -89 -309
-311 -577 -598 -722 -113 -57 -207 -89 -340 -114 -55 -11 -318 -11 -385 -1
-316 49 -629 259 -807 542 -70 111 -140 294 -158 412 -3 21 -8 50 -10 63 -15
69 -4 294 20 409 22 111 101 290 180 407 60 88 220 246 310 305 174 114 362
181 549 195 33 2 61 6 63 7 3 3 28 2 164 -8z"/>
</g>
</svg>
